<svg id="Layer_1" data-name="Layer 1" xmlns="http://www.w3.org/2000/svg" xmlns:xlink="http://www.w3.org/1999/xlink" viewBox="0 0 693 513"><defs><style>.cls-1{fill:url(#linear-gradient);}.cls-2{fill:url(#linear-gradient-2);}.cls-3{fill:#fdfdfd;}.cls-4{fill:#150946;}.cls-5{fill:#fff;}</style><linearGradient id="linear-gradient" x1="504.72" y1="743.81" x2="613.63" y2="743.81" gradientUnits="userSpaceOnUse"><stop offset="0" stop-color="#150946"/><stop offset="1" stop-color="#3c3087"/></linearGradient><linearGradient id="linear-gradient-2" x1="195.9" y1="474.08" x2="878.1" y2="474.08" xlink:href="#linear-gradient"/></defs><path d="M0,0Z" transform="translate(-194 -283)"/><path d="M0,0Z" transform="translate(-194 -283)"/><path d="M0,0ZM0,0ZM0,0Z" transform="translate(-194 -283)"/><path d="M0,0Z" transform="translate(-194 -283)"/><path d="M0,0Z" transform="translate(-194 -283)"/><path d="M0,0Z" transform="translate(-194 -283)"/><path d="M0,0Z" transform="translate(-194 -283)"/><path class="cls-1" d="M0,0Z" transform="translate(-194 -283)"/><path class="cls-2" d="M0,0ZM0,0Z" transform="translate(-194 -283)"/><path class="cls-3" d="M0,0ZM0,0ZM0,0ZM0,0Z" transform="translate(-194 -283)"/><path class="cls-4" d="M0,0Z" transform="translate(-194 -283)"/><path class="cls-4" d="M0,0Z" transform="translate(-194 -283)"/><path class="cls-4" d="M0,0Z" transform="translate(-194 -283)"/><path class="cls-5" d="M0,0ZM0,0ZM0,0ZM0,0ZM0,0ZM0,0ZM0,0ZM0,0ZM0,0ZM0,0ZM0,0ZM0,0ZM0,0ZM0,0Z" transform="translate(-194 -283)"/><path class="cls-5" d="M0,0Z" transform="translate(-194 -283)"/></svg>