<svg id="Layer_1" data-name="Layer 1" xmlns="http://www.w3.org/2000/svg" xmlns:xlink="http://www.w3.org/1999/xlink" viewBox="0 0 682 381"><defs><style>.cls-1{fill:url(#linear-gradient);}.cls-2{fill:#fdfdfd;}.cls-3{fill:#150946;}.cls-4{fill:#fff;}</style><linearGradient id="linear-gradient" x1="198.9" y1="540" x2="881.1" y2="540" gradientUnits="userSpaceOnUse"><stop offset="0" stop-color="#150946"/><stop offset="1" stop-color="#3c3087"/></linearGradient></defs><path class="cls-1" d="M0,0ZM0,0Z" transform="translate(-199 -349)"/><path class="cls-2" d="M0,0ZM0,0ZM0,0ZM0,0Z" transform="translate(-199 -349)"/><path class="cls-3" d="M0,0Z" transform="translate(-199 -349)"/><path class="cls-3" d="M0,0Z" transform="translate(-199 -349)"/><path class="cls-3" d="M0,0Z" transform="translate(-199 -349)"/><path class="cls-4" d="M0,0ZM0,0ZM0,0ZM0,0ZM0,0ZM0,0ZM0,0ZM0,0ZM0,0ZM0,0ZM0,0ZM0,0ZM0,0ZM0,0Z" transform="translate(-199 -349)"/><path class="cls-4" d="M0,0Z" transform="translate(-199 -349)"/></svg>